<svg xmlns="http://www.w3.org/2000/svg" width="652" height="268" style="background:#f0ede3"><style>@import url("https://fonts.googleapis.com/css2?family=EB+Garamond:ital,wght@0,400;0,700;1,400&amp;display=swap");text{font-family:ETBembo,"EB Garamond",Georgia,Palatino,serif}</style><rect x="68" y="58" width="154" height="180" fill="#e2dfd5"/><rect x="530" y="58" width="66" height="180" fill="#e2dfd5"/><line x1="68" y1="68.0" x2="596.0" y2="68.0" stroke="#cccccc" stroke-width="0.4"/><text x="62" y="68.0" text-anchor="end" dominant-baseline="middle" font-size="9" fill="#555555">Sat 28 Feb</text><line x1="297.18" y1="65.6" x2="297.18" y2="70.4" stroke="#888888" stroke-width="0.8" stroke-linecap="butt"/><line x1="344.24" y1="65.6" x2="344.24" y2="70.4" stroke="#888888" stroke-width="0.8" stroke-linecap="butt"/><line x1="357.01" y1="65.6" x2="357.01" y2="70.4" stroke="#888888" stroke-width="0.8" stroke-linecap="butt"/><line x1="391.79" y1="65.6" x2="391.79" y2="70.4" stroke="#888888" stroke-width="0.8" stroke-linecap="butt"/><line x1="416.52" y1="65.6" x2="416.52" y2="70.4" stroke="#888888" stroke-width="0.8" stroke-linecap="butt"/><line x1="421.49" y1="65.6" x2="421.49" y2="70.4" stroke="#888888" stroke-width="0.8" stroke-linecap="butt"/><line x1="424.10" y1="65.6" x2="424.10" y2="70.4" stroke="#888888" stroke-width="0.8" stroke-linecap="butt"/><line x1="432.39" y1="65.6" x2="432.39" y2="70.4" stroke="#888888" stroke-width="0.8" stroke-linecap="butt"/><line x1="439.86" y1="65.6" x2="439.86" y2="70.4" stroke="#888888" stroke-width="0.8" stroke-linecap="butt"/><line x1="446.77" y1="65.6" x2="446.77" y2="70.4" stroke="#888888" stroke-width="0.8" stroke-linecap="butt"/><line x1="455.48" y1="65.6" x2="455.48" y2="70.4" stroke="#888888" stroke-width="0.8" stroke-linecap="butt"/><line x1="458.12" y1="65.6" x2="458.12" y2="70.4" stroke="#888888" stroke-width="0.8" stroke-linecap="butt"/><line x1="464.97" y1="65.6" x2="464.97" y2="70.4" stroke="#888888" stroke-width="0.8" stroke-linecap="butt"/><line x1="469.68" y1="65.6" x2="469.68" y2="70.4" stroke="#888888" stroke-width="0.8" stroke-linecap="butt"/><line x1="476.74" y1="65.6" x2="476.74" y2="70.4" stroke="#888888" stroke-width="0.8" stroke-linecap="butt"/><line x1="480.59" y1="65.6" x2="480.59" y2="70.4" stroke="#888888" stroke-width="0.8" stroke-linecap="butt"/><line x1="495.38" y1="65.6" x2="495.38" y2="70.4" stroke="#888888" stroke-width="0.8" stroke-linecap="butt"/><line x1="565.85" y1="65.6" x2="565.85" y2="70.4" stroke="#333333" stroke-width="0.8" stroke-linecap="butt"/><line x1="584.71" y1="65.6" x2="584.71" y2="70.4" stroke="#333333" stroke-width="0.8" stroke-linecap="butt"/><line x1="68" y1="88.0" x2="596.0" y2="88.0" stroke="#cccccc" stroke-width="0.4"/><text x="62" y="88.0" text-anchor="end" dominant-baseline="middle" font-size="9" fill="#555555">Sun 1 Mar</text><line x1="107.36" y1="85.6" x2="107.36" y2="90.4" stroke="#333333" stroke-width="0.8" stroke-linecap="butt"/><line x1="205.81" y1="85.6" x2="205.81" y2="90.4" stroke="#333333" stroke-width="0.8" stroke-linecap="butt"/><line x1="211.18" y1="85.6" x2="211.18" y2="90.4" stroke="#333333" stroke-width="0.8" stroke-linecap="butt"/><line x1="219.70" y1="85.6" x2="219.70" y2="90.4" stroke="#333333" stroke-width="0.8" stroke-linecap="butt"/><line x1="222.41" y1="85.6" x2="222.41" y2="90.4" stroke="#888888" stroke-width="0.8" stroke-linecap="butt"/><line x1="224.99" y1="85.6" x2="224.99" y2="90.4" stroke="#888888" stroke-width="0.8" stroke-linecap="butt"/><line x1="290.39" y1="85.6" x2="290.39" y2="90.4" stroke="#888888" stroke-width="0.8" stroke-linecap="butt"/><line x1="293.85" y1="85.6" x2="293.85" y2="90.4" stroke="#888888" stroke-width="0.8" stroke-linecap="butt"/><line x1="350.03" y1="85.6" x2="350.03" y2="90.4" stroke="#888888" stroke-width="0.8" stroke-linecap="butt"/><line x1="364.39" y1="85.6" x2="364.39" y2="90.4" stroke="#888888" stroke-width="0.8" stroke-linecap="butt"/><line x1="533.04" y1="85.6" x2="533.04" y2="90.4" stroke="#333333" stroke-width="0.8" stroke-linecap="butt"/><line x1="535.64" y1="85.6" x2="535.64" y2="90.4" stroke="#333333" stroke-width="0.8" stroke-linecap="butt"/><line x1="68" y1="108.0" x2="596.0" y2="108.0" stroke="#cccccc" stroke-width="0.4"/><text x="62" y="108.0" text-anchor="end" dominant-baseline="middle" font-size="9" fill="#555555">Mon 2 Mar</text><line x1="225.06" y1="105.6" x2="225.06" y2="110.4" stroke="#888888" stroke-width="0.8" stroke-linecap="butt"/><line x1="335.47" y1="105.6" x2="335.47" y2="110.4" stroke="#888888" stroke-width="0.8" stroke-linecap="butt"/><line x1="455.62" y1="105.6" x2="455.62" y2="110.4" stroke="#888888" stroke-width="0.8" stroke-linecap="butt"/><line x1="68" y1="128.0" x2="596.0" y2="128.0" stroke="#cccccc" stroke-width="0.4"/><text x="62" y="128.0" text-anchor="end" dominant-baseline="middle" font-size="9" fill="#555555">Tue 3 Mar</text><line x1="83.31" y1="125.6" x2="83.31" y2="130.4" stroke="#333333" stroke-width="0.8" stroke-linecap="butt"/><line x1="314.78" y1="125.6" x2="314.78" y2="130.4" stroke="#888888" stroke-width="0.8" stroke-linecap="butt"/><line x1="347.88" y1="125.6" x2="347.88" y2="130.4" stroke="#888888" stroke-width="0.8" stroke-linecap="butt"/><line x1="395.22" y1="125.6" x2="395.22" y2="130.4" stroke="#888888" stroke-width="0.8" stroke-linecap="butt"/><line x1="508.29" y1="125.6" x2="508.29" y2="130.4" stroke="#888888" stroke-width="0.8" stroke-linecap="butt"/><line x1="569.63" y1="125.6" x2="569.63" y2="130.4" stroke="#333333" stroke-width="0.8" stroke-linecap="butt"/><line x1="580.07" y1="125.6" x2="580.07" y2="130.4" stroke="#333333" stroke-width="0.8" stroke-linecap="butt"/><line x1="68" y1="148.0" x2="596.0" y2="148.0" stroke="#cccccc" stroke-width="0.4"/><text x="62" y="148.0" text-anchor="end" dominant-baseline="middle" font-size="9" fill="#555555">Wed 4 Mar</text><line x1="376.76" y1="145.6" x2="376.76" y2="150.4" stroke="#888888" stroke-width="0.8" stroke-linecap="butt"/><line x1="389.11" y1="145.6" x2="389.11" y2="150.4" stroke="#888888" stroke-width="0.8" stroke-linecap="butt"/><line x1="424.23" y1="145.6" x2="424.23" y2="150.4" stroke="#888888" stroke-width="0.8" stroke-linecap="butt"/><line x1="486.81" y1="145.6" x2="486.81" y2="150.4" stroke="#888888" stroke-width="0.8" stroke-linecap="butt"/><line x1="68" y1="168.0" x2="596.0" y2="168.0" stroke="#cccccc" stroke-width="0.4"/><text x="62" y="168.0" text-anchor="end" dominant-baseline="middle" font-size="9" fill="#555555">Thu 5 Mar</text><line x1="122.40" y1="165.6" x2="122.40" y2="170.4" stroke="#333333" stroke-width="0.8" stroke-linecap="butt"/><line x1="136.88" y1="165.6" x2="136.88" y2="170.4" stroke="#333333" stroke-width="0.8" stroke-linecap="butt"/><line x1="299.02" y1="165.6" x2="299.02" y2="170.4" stroke="#888888" stroke-width="0.8" stroke-linecap="butt"/><line x1="371.25" y1="165.6" x2="371.25" y2="170.4" stroke="#888888" stroke-width="0.8" stroke-linecap="butt"/><line x1="431.11" y1="165.6" x2="431.11" y2="170.4" stroke="#888888" stroke-width="0.8" stroke-linecap="butt"/><line x1="573.18" y1="165.6" x2="573.18" y2="170.4" stroke="#333333" stroke-width="0.8" stroke-linecap="butt"/><line x1="575.76" y1="165.6" x2="575.76" y2="170.4" stroke="#333333" stroke-width="0.8" stroke-linecap="butt"/><line x1="68" y1="188.0" x2="596.0" y2="188.0" stroke="#cccccc" stroke-width="0.4"/><text x="62" y="188.0" text-anchor="end" dominant-baseline="middle" font-size="9" fill="#555555">Fri 6 Mar</text><line x1="294.07" y1="185.6" x2="294.07" y2="190.4" stroke="#888888" stroke-width="0.8" stroke-linecap="butt"/><line x1="493.24" y1="185.6" x2="493.24" y2="190.4" stroke="#888888" stroke-width="0.8" stroke-linecap="butt"/><line x1="551.06" y1="185.6" x2="551.06" y2="190.4" stroke="#333333" stroke-width="0.8" stroke-linecap="butt"/><line x1="68" y1="208.0" x2="596.0" y2="208.0" stroke="#cccccc" stroke-width="0.4"/><text x="62" y="208.0" text-anchor="end" dominant-baseline="middle" font-size="9" fill="#555555">Sat 7 Mar</text><line x1="81.82" y1="205.6" x2="81.82" y2="210.4" stroke="#333333" stroke-width="0.8" stroke-linecap="butt"/><line x1="178.38" y1="205.6" x2="178.38" y2="210.4" stroke="#333333" stroke-width="0.8" stroke-linecap="butt"/><line x1="208.73" y1="205.6" x2="208.73" y2="210.4" stroke="#333333" stroke-width="0.8" stroke-linecap="butt"/><line x1="396.84" y1="205.6" x2="396.84" y2="210.4" stroke="#888888" stroke-width="0.8" stroke-linecap="butt"/><line x1="409.67" y1="205.6" x2="409.67" y2="210.4" stroke="#888888" stroke-width="0.8" stroke-linecap="butt"/><line x1="520.85" y1="205.6" x2="520.85" y2="210.4" stroke="#888888" stroke-width="0.8" stroke-linecap="butt"/><line x1="549.04" y1="205.6" x2="549.04" y2="210.4" stroke="#333333" stroke-width="0.8" stroke-linecap="butt"/><line x1="68" y1="228.0" x2="556.8" y2="228.0" stroke="#cccccc" stroke-width="0.4"/><text x="62" y="228.0" text-anchor="end" dominant-baseline="middle" font-size="9" fill="#555555">Sun 8 Mar</text><line x1="231.98" y1="225.6" x2="231.98" y2="230.4" stroke="#888888" stroke-width="0.8" stroke-linecap="butt"/><line x1="371.97" y1="225.6" x2="371.97" y2="230.4" stroke="#888888" stroke-width="0.8" stroke-linecap="butt"/><line x1="385.09" y1="225.6" x2="385.09" y2="230.4" stroke="#888888" stroke-width="0.8" stroke-linecap="butt"/><line x1="435.79" y1="225.6" x2="435.79" y2="230.4" stroke="#888888" stroke-width="0.8" stroke-linecap="butt"/><line x1="481.12" y1="225.6" x2="481.12" y2="230.4" stroke="#888888" stroke-width="0.8" stroke-linecap="butt"/><line x1="67.5" y1="244" x2="596.5" y2="244" stroke="#444444" stroke-width="1.5"/><line x1="68" y1="244" x2="68" y2="252" stroke="#444444" stroke-width="1.0"/><text x="68" y="260" text-anchor="middle" font-size="8" font-weight="bold" fill="#444444">00:00</text><line x1="134" y1="244" x2="134" y2="252" stroke="#444444" stroke-width="1.0"/><text x="134" y="260" text-anchor="middle" font-size="8" font-weight="bold" fill="#444444">03:00</text><line x1="200" y1="244" x2="200" y2="252" stroke="#444444" stroke-width="1.0"/><text x="200" y="260" text-anchor="middle" font-size="8" font-weight="bold" fill="#444444">06:00</text><line x1="266" y1="244" x2="266" y2="252" stroke="#444444" stroke-width="1.0"/><text x="266" y="260" text-anchor="middle" font-size="8" font-weight="bold" fill="#444444">09:00</text><line x1="332" y1="244" x2="332" y2="252" stroke="#444444" stroke-width="1.0"/><text x="332" y="260" text-anchor="middle" font-size="8" font-weight="bold" fill="#444444">12:00</text><line x1="398" y1="244" x2="398" y2="252" stroke="#444444" stroke-width="1.0"/><text x="398" y="260" text-anchor="middle" font-size="8" font-weight="bold" fill="#444444">15:00</text><line x1="464" y1="244" x2="464" y2="252" stroke="#444444" stroke-width="1.0"/><text x="464" y="260" text-anchor="middle" font-size="8" font-weight="bold" fill="#444444">18:00</text><line x1="530" y1="244" x2="530" y2="252" stroke="#444444" stroke-width="1.0"/><text x="530" y="260" text-anchor="middle" font-size="8" font-weight="bold" fill="#444444">21:00</text><line x1="596" y1="244" x2="596" y2="252" stroke="#444444" stroke-width="1.0"/><text x="596" y="260" text-anchor="middle" font-size="8" font-weight="bold" fill="#444444">24:00</text><text x="626" y="52" text-anchor="middle" font-size="7" fill="#888888">total</text><path d="M 626.0,68.0 L 626.00,59.20 A 8.8,8.8 0 0,1 631.41,61.06 Z" fill="#333333"/><path d="M 626.0,68.0 L 631.41,61.06 A 8.8,8.8 0 1,1 626.00,59.20 Z" fill="#888888"/><text x="626" y="68.0" text-anchor="middle" dominant-baseline="middle" font-size="6" fill="white">19</text><path d="M 626.0,88.0 L 626.00,79.20 A 8.8,8.8 0 0,1 626.00,96.80 Z" fill="#333333"/><path d="M 626.0,88.0 L 626.00,96.80 A 8.8,8.8 0 0,1 626.00,79.20 Z" fill="#888888"/><text x="626" y="88.0" text-anchor="middle" dominant-baseline="middle" font-size="6" fill="white">12</text><circle cx="626" cy="108.0" r="6.1" fill="#888888"/><text x="626" y="108.0" text-anchor="middle" dominant-baseline="middle" font-size="6" fill="white">3</text><path d="M 626.0,128.0 L 626.00,119.20 A 8.8,8.8 0 0,1 629.82,135.93 Z" fill="#333333"/><path d="M 626.0,128.0 L 629.82,135.93 A 8.8,8.8 0 1,1 626.00,119.20 Z" fill="#888888"/><text x="626" y="128.0" text-anchor="middle" dominant-baseline="middle" font-size="6" fill="white">7</text><circle cx="626" cy="148.0" r="7.0" fill="#888888"/><text x="626" y="148.0" text-anchor="middle" dominant-baseline="middle" font-size="6" fill="white">4</text><path d="M 626.0,168.0 L 626.00,159.20 A 8.8,8.8 0 1,1 622.18,175.93 Z" fill="#333333"/><path d="M 626.0,168.0 L 622.18,175.93 A 8.8,8.8 0 0,1 626.00,159.20 Z" fill="#888888"/><text x="626" y="168.0" text-anchor="middle" dominant-baseline="middle" font-size="6" fill="white">7</text><path d="M 626.0,188.0 L 626.00,181.94 A 6.1,6.1 0 0,1 631.25,191.03 Z" fill="#333333"/><path d="M 626.0,188.0 L 631.25,191.03 A 6.1,6.1 0 1,1 626.00,181.94 Z" fill="#888888"/><text x="626" y="188.0" text-anchor="middle" dominant-baseline="middle" font-size="6" fill="white">3</text><path d="M 626.0,208.0 L 626.00,199.20 A 8.8,8.8 0 1,1 622.18,215.93 Z" fill="#333333"/><path d="M 626.0,208.0 L 622.18,215.93 A 8.8,8.8 0 0,1 626.00,199.20 Z" fill="#888888"/><text x="626" y="208.0" text-anchor="middle" dominant-baseline="middle" font-size="6" fill="white">7</text><circle cx="626" cy="228.0" r="7.8" fill="#888888"/><text x="626" y="228.0" text-anchor="middle" dominant-baseline="middle" font-size="6" fill="white">5</text><text x="68" y="15" font-size="14" font-weight="bold" fill="#222222">Rocket alert frequency — Tel Aviv - City Center</text><text x="68" y="31" font-size="9" fill="#888888">Feb 28 – Mar 08, 2026   (67 alerts)</text><path d="M 592.0,45.0 L 592.00,49.50 A 4.5,4.5 0 0,1 592.00,40.50 Z" fill="#333333"/><path d="M 592.0,45.0 L 592.00,40.50 A 4.5,4.5 0 0,1 592.00,49.50 Z" fill="#888888"/><text x="584.5" y="45.0" text-anchor="end" dominant-baseline="middle" font-size="9" fill="#888888">night/day:</text></svg>